<svg width="40" height="40" viewBox="0 0 100 100" fill="none" xmlns="http://www.w3.org/2000/svg">
  <path
    d="M57.3739 84.5011C57.0758 85.1065 57.3174 85.8428 57.914 86.1452C58.5106 86.4482 59.2362 86.2026 59.5343 85.5972L57.3739 84.5011ZM42.2706 75.2453C41.4627 74.3345 41.4623 74.335 41.4618 74.335C41.4616 74.3355 41.4611 74.3359 41.4608 74.3359C41.4601 74.3369 41.4594 74.3374 41.4586 74.3379C41.4571 74.3394 41.4554 74.3408 41.4536 74.3428C41.45 74.3462 41.4457 74.3502 41.4409 74.3546C41.4313 74.3639 41.4194 74.3752 41.4055 74.3889C41.3776 74.4158 41.3415 74.4526 41.2992 74.4972C41.215 74.5869 41.1038 74.7129 40.9835 74.8703C40.7493 75.1771 40.4488 75.6462 40.2709 76.233C40.0881 76.8354 40.0309 77.582 40.3268 78.3698C40.6197 79.1502 41.2095 79.8404 42.0838 80.4315L43.4236 78.3923C42.8486 78.0031 42.6533 77.682 42.584 77.4972C42.5175 77.3202 42.5207 77.1477 42.5795 76.9536C42.6431 76.7438 42.7654 76.5389 42.8935 76.3707C42.9544 76.2908 43.0092 76.2291 43.0458 76.1903C43.0639 76.1712 43.0768 76.1585 43.0829 76.1521C43.086 76.1492 43.0873 76.1482 43.0867 76.1487C43.0864 76.1492 43.0856 76.1497 43.0842 76.1511C43.0835 76.1516 43.0827 76.1521 43.0818 76.1531C43.0813 76.1536 43.0808 76.1541 43.0802 76.1546C43.08 76.1551 43.0796 76.1551 43.0794 76.1555C43.079 76.1555 43.0785 76.156 42.2706 75.2453ZM42.0838 80.4315C43.1114 81.1266 44.5449 81.3252 45.9053 81.3683C47.3181 81.4129 48.9159 81.2913 50.4396 81.1536C51.9947 81.0129 53.4604 80.857 54.7217 80.809C55.3473 80.785 55.8879 80.7894 56.3338 80.8301C56.7928 80.8722 57.0763 80.9467 57.23 81.0178L58.2295 78.7864C57.7188 78.5511 57.1266 78.4418 56.5507 78.3889C55.9614 78.335 55.3072 78.334 54.6309 78.3595C53.2879 78.4109 51.7193 78.5771 50.2251 78.7119C48.6995 78.8502 47.2324 78.958 45.9805 78.9183C44.6764 78.8771 43.8454 78.6776 43.4236 78.3923L42.0838 80.4315ZM57.23 81.0178C57.587 81.1825 57.742 81.3987 57.828 81.6404C57.9295 81.9252 57.9527 82.3109 57.8913 82.7712C57.8314 83.2207 57.7019 83.659 57.5807 83.9957C57.5208 84.1609 57.4657 84.2943 57.4271 84.384C57.4077 84.4281 57.3928 84.4614 57.3831 84.4815C57.3783 84.4918 57.3754 84.4987 57.3734 84.5016C57.3729 84.5036 57.3725 84.5041 57.3725 84.5041C57.3725 84.5041 57.3725 84.5041 57.3729 84.5036C57.3729 84.5031 57.3729 84.5026 57.3734 84.5026C57.3734 84.5021 57.3734 84.5021 57.3734 84.5016C57.3739 84.5016 57.3739 84.5011 58.4541 85.0492C59.5343 85.5972 59.5348 85.5967 59.5348 85.5962L59.5353 85.5957C59.5357 85.5948 59.5357 85.5943 59.5362 85.5938C59.5372 85.5923 59.5377 85.5904 59.5386 85.5884C59.5406 85.5845 59.543 85.5796 59.5459 85.5742C59.5512 85.5624 59.5585 85.5472 59.5676 85.5281C59.585 85.4904 59.6087 85.4379 59.6372 85.3727C59.6937 85.2428 59.7686 85.0604 59.8488 84.8389C60.0063 84.4016 60.1942 83.783 60.285 83.0992C60.3749 82.4256 60.3826 81.6016 60.0995 80.8065C59.8005 79.9683 59.201 79.2345 58.2295 78.7864L57.23 81.0178Z"
    fill="#000"/>
  <path d="M50.2415 55.8823L37.6812 44.6079H50.2415H62.3188L50.2415 55.8823Z" fill="#000"/>
  <path d="M50.2415 82.2513H49.3019L48.7923 54.4116L50.2415 55.8822L51.6908 54.4116L51.1812 82.2513H50.2415Z"
        fill="#000"/>
  <path d="M50.2416 81.3726L56.5218 87.2549H50.2416H43.9614L50.2416 81.3726Z" fill="#000"/>
  <path
    d="M89.1705 85.7888C88.1807 86.7927 86.1213 87.2986 82.8101 86.8221C79.5797 86.3574 75.4923 85.0005 70.8744 82.7848C61.6498 78.3584 50.514 70.602 40.226 60.1628C29.9385 49.724 22.486 38.6189 18.3142 29.4571C16.2257 24.8706 14.983 20.8226 14.5935 17.6212C14.1953 14.3495 14.7216 12.2854 15.7269 11.2653C16.6899 10.2881 18.5031 9.8915 21.4548 10.5602C24.3504 11.2162 28.0053 12.8315 32.2056 15.3246C40.59 20.3011 50.8952 28.6218 61.2232 39.1019C71.5512 49.5819 79.8816 60.1706 84.9159 68.8118C87.4377 73.1412 89.0947 76.9177 89.7879 79.9089C90.4971 82.9667 90.1217 84.8236 89.1705 85.7888Z"
    stroke="#000" stroke-width="5"/>
  <path
    d="M84.0623 10.9889C85.0874 12.0289 85.6657 14.1216 85.3754 17.3897C85.0908 20.5931 83.9913 24.642 82.0502 29.2265C78.1725 38.3854 71.0188 49.4876 60.7401 59.9175C50.4604 70.3484 39.0359 78.0969 29.5172 82.5175C24.7526 84.7302 20.5149 86.0861 17.1692 86.5493C13.7311 87.0258 11.6046 86.5126 10.6188 85.5126C9.67464 84.5542 9.3186 82.7381 10.0671 79.7337C10.7998 76.792 12.5103 73.0802 15.0895 68.8136C20.2372 60.2974 28.6833 49.8337 39.0183 39.3468C49.3536 28.8596 59.5507 20.4056 67.8275 15.2981C71.9744 12.7391 75.5734 11.0615 78.4261 10.3602C81.3329 9.64562 83.1077 10.0201 84.0623 10.9889Z"
    stroke="#000" stroke-width="5"/>
</svg>
