<svg width="25" height="25" viewBox="0 0 25 25" fill="none" xmlns="http://www.w3.org/2000/svg">
<path fill-rule="evenodd" clip-rule="evenodd" d="M25 12.5C25 19.4035 19.4035 25 12.5 25C5.59644 25 0 19.4035 0 12.5C0 5.59644 5.59644 0 12.5 0C19.4035 0 25 5.59644 25 12.5ZM16.25 8.75C16.25 10.8211 14.5711 12.5 12.5 12.5C10.4289 12.5 8.75 10.8211 8.75 8.75C8.75 6.67894 10.4289 5 12.5 5C14.5711 5 16.25 6.67894 16.25 8.75ZM12.5 22.5C10.2274 22.5034 8.02195 21.7293 6.25 20.3063V16.25C6.25 14.8687 7.35875 13.75 8.75 13.75H16.25C17.6313 13.75 18.75 14.8562 18.75 16.25V20.3063C17.0375 21.6788 14.865 22.5 12.5 22.5Z" fill="#F9F9F9"/>
</svg>
